<svg width="4225" height="701" viewBox="0 0 4225 701" fill="none" xmlns="http://www.w3.org/2000/svg">
<path fill-rule="evenodd" clip-rule="evenodd" d="M8.86277 0H0V8.86277V341.259V350.122V358.984V691.381V700.243H8.86277H341.258H350.12H350.122H358.984H691.379H700.242V691.381V358.984V350.122V341.259V8.86277V0H691.379H358.984H350.122H350.12H341.258H8.86277ZM341.258 17.7255H17.7255V341.259H234.42V233.884H341.258V17.7255ZM17.7255 358.984H234.42V465.753H341.258V682.518H17.7255V358.984ZM251.034 449.139H341.258V449.138H358.984V449.139H449.676V449.138H449.676V250.027H250.565V449.138H251.034V449.139ZM358.984 682.518V465.753H466.289V358.984H682.517V682.518H358.984ZM682.517 341.259H466.289V233.884H358.984V17.7255H682.517V341.259Z" fill="white"/>
<path d="M1004.79 196.662H1227.05V255.709H1074V321.641H1201.8V378.237H1074V499.565H1004.79V196.662Z" fill="white"/>
<path d="M1381.44 499.513C1359.27 499.513 1339.34 495.757 1321.66 488.194C1303.93 480.63 1288.85 470.094 1276.33 456.532C1263.81 442.97 1254.27 426.956 1247.59 408.491C1240.97 389.973 1237.63 369.943 1237.63 348.296C1237.63 326.649 1240.97 306.254 1247.59 287.736C1254.22 269.219 1263.81 253.31 1276.33 239.852C1288.85 226.446 1303.93 215.91 1321.66 208.19C1339.4 200.522 1359.32 196.662 1381.44 196.662C1403.56 196.662 1423.12 200.522 1440.85 208.19C1458.59 215.858 1473.66 226.446 1486.18 239.852C1498.7 253.258 1508.24 269.219 1514.92 287.736C1521.55 306.254 1524.88 326.44 1524.88 348.296C1524.88 370.152 1521.55 389.973 1514.92 408.491C1508.3 427.008 1498.7 443.022 1486.18 456.532C1473.66 470.094 1458.59 480.63 1440.85 488.194C1423.12 495.757 1403.35 499.513 1381.44 499.513ZM1381.86 444.795C1394.38 444.795 1405.33 442.344 1414.67 437.388C1424.06 432.433 1431.88 425.652 1438.14 417.045C1444.4 408.439 1449.09 398.267 1452.22 386.583C1455.35 374.899 1456.92 362.119 1456.92 348.296C1456.92 334.473 1455.35 321.642 1452.22 309.801C1449.09 297.96 1444.4 287.58 1438.14 278.712C1431.88 269.845 1424.06 262.96 1414.67 258.004C1405.28 253.049 1394.32 250.597 1381.86 250.597C1369.39 250.597 1358.33 253.049 1348.84 258.004C1339.34 262.96 1331.36 269.845 1325 278.712C1318.64 287.58 1313.79 297.908 1310.55 309.801C1307.32 321.642 1305.65 334.473 1305.65 348.296C1305.65 362.119 1307.27 374.846 1310.55 386.583C1313.79 398.319 1318.64 408.491 1325 417.045C1331.36 425.652 1339.34 432.433 1348.84 437.388C1358.33 442.344 1369.34 444.795 1381.86 444.795Z" fill="white"/>
<path d="M1558.49 196.662H1702.61C1717.27 196.662 1730.88 198.54 1743.5 202.348C1756.13 206.156 1767.03 211.789 1776.26 219.248C1785.49 226.707 1792.74 235.783 1798.06 246.529C1803.33 257.274 1805.99 269.532 1805.99 283.355C1805.99 301.246 1801.51 316.478 1792.59 328.944C1783.61 341.411 1769.37 350.8 1749.87 357.007V358.207C1765.05 362.849 1776.26 369.682 1783.46 378.759C1790.66 387.835 1795.35 400.51 1797.49 416.837C1798.85 427.165 1799.84 436.867 1800.57 445.943C1801.25 455.019 1801.92 463.156 1802.6 470.354C1803.28 477.553 1804.17 483.395 1805.26 487.881C1806.36 492.367 1808.13 495.131 1810.53 496.227V499.461H1742.15C1739.96 498.365 1738.39 495.653 1737.45 491.323C1736.51 486.994 1735.68 481.621 1735 475.258C1734.32 468.894 1733.7 461.748 1733.17 453.871C1732.6 445.995 1731.97 437.858 1731.14 429.46C1729.26 414.281 1724.31 402.857 1716.27 395.242C1708.24 387.626 1695.88 383.87 1679.03 383.87H1627.76V499.461H1558.54V196.662H1558.49ZM1627.7 332.648H1689.15C1704.64 332.648 1716.43 329.048 1724.57 321.85C1732.71 314.652 1736.77 304.95 1736.77 292.744C1736.77 280.538 1733.02 270.314 1725.56 262.803C1718.1 255.344 1706.62 251.588 1691.18 251.588H1627.7V332.595V332.648Z" fill="white"/>
<path d="M1829.68 196.662H2079.64V255.709H1989.3V499.565H1919.71V255.657H1829.73V196.61L1829.68 196.662Z" fill="white"/>
<path d="M2113.21 196.662H2340.38V254.457H2182.43V314.704H2319.2V369.63H2182.43V440.048H2343.25V499.461H2113.27V196.662H2113.21Z" fill="white"/>
<path d="M2472.11 341.15L2378.9 196.662H2458.29L2482.7 237.766C2486.24 243.712 2489.74 250.18 2493.29 257.117C2496.83 264.055 2500.07 270.627 2503.04 276.887C2506.27 283.929 2509.66 291.283 2513.21 298.847H2514.05C2517.28 291.231 2520.67 283.929 2524.22 276.887C2527.19 270.627 2530.53 264.055 2534.18 257.117C2537.83 250.18 2541.43 243.764 2544.98 237.766L2569.81 196.662H2645.55L2553.95 340.785L2654.88 499.565H2572.68L2542.16 446.256C2538.61 440.309 2535.17 433.685 2531.78 426.486C2528.39 419.288 2525.21 412.559 2522.24 406.352C2519 399.049 2515.72 391.695 2512.48 384.392H2511.65C2508.41 391.695 2504.97 399.049 2501.48 406.352C2498.5 412.611 2495.16 419.288 2491.51 426.486C2487.86 433.685 2484.26 440.257 2480.71 446.256L2449.37 499.565H2370.39L2472.16 341.202L2472.11 341.15Z" fill="white"/>
<path d="M2836.96 196.662H2948.89C2971.43 196.662 2991.15 200.313 3008.1 207.668C3025.05 215.023 3039.19 225.351 3050.45 238.809C3061.72 252.266 3070.12 268.332 3075.7 287.058C3081.28 305.784 3084.05 326.545 3084.05 349.339C3084.05 372.134 3081.12 392.373 3075.28 410.786C3069.44 429.251 3060.68 445.056 3049.04 458.201C3037.36 471.346 3023.02 481.569 3005.91 488.715C2988.8 495.914 2968.87 499.513 2946.08 499.513H2837.01V196.662H2836.96ZM2944.41 463.313C2961.52 463.313 2976.17 460.652 2988.38 455.384C3000.59 450.116 3010.55 442.5 3018.32 432.589C3026.04 422.679 3031.78 410.682 3035.43 396.546C3039.08 382.462 3040.91 366.709 3040.91 349.339C3040.91 331.97 3039.19 316.112 3035.8 301.716C3032.41 287.319 3026.98 275.061 3019.52 264.89C3012.06 254.718 3002.36 246.842 2990.41 241.26C2978.47 235.679 2963.97 232.914 2946.86 232.914H2878.89V463.313H2944.41Z" fill="white"/>
<path d="M3117.66 196.662H3332.98V233.28H3159.18V324.876H3316.29V359.459H3159.18V461.643H3337.47V499.513H3117.66V196.662Z" fill="white"/>
<path d="M3471.09 499.513C3450.7 499.513 3432.91 496.904 3417.63 491.688C3402.34 486.472 3389.56 479.326 3379.24 470.354C3368.91 461.33 3361.03 450.689 3355.56 438.431C3350.08 426.173 3346.95 413.081 3346.17 399.258H3385.76C3388.1 421.479 3396.45 438.379 3410.85 450.011C3425.19 461.643 3445.69 467.433 3472.35 467.433C3482 467.433 3490.97 466.338 3499.21 464.095C3507.45 461.904 3514.49 458.618 3520.39 454.288C3526.28 449.959 3530.92 444.586 3534.31 438.014C3537.7 431.494 3539.43 423.774 3539.43 414.906C3539.43 405.517 3537.39 397.693 3533.37 391.381C3529.31 385.122 3523.57 379.906 3516.11 375.733C3508.65 371.56 3499.78 368.013 3489.45 365.144C3479.13 362.275 3467.6 359.406 3454.77 356.537C3441.67 353.929 3429.36 350.8 3417.73 347.148C3406.1 343.497 3395.88 338.594 3386.96 332.439C3378.09 326.284 3371.1 318.668 3365.99 309.54C3360.88 300.411 3358.37 288.779 3358.37 274.696C3358.37 262.438 3360.82 251.432 3365.83 241.782C3370.79 232.132 3377.72 223.942 3386.59 217.318C3395.46 210.641 3406.1 205.581 3418.51 202.034C3430.93 198.487 3444.54 196.766 3459.46 196.766C3477.46 196.766 3493 198.905 3506.09 203.234C3519.13 207.564 3530.19 213.51 3539.22 221.073C3548.24 228.637 3555.23 237.661 3560.19 248.093C3565.14 258.526 3568.53 270.053 3570.36 282.572H3531.55C3528.94 264.837 3521.48 251.275 3509.22 242.042C3496.97 232.758 3480.48 228.115 3459.88 228.115C3440.53 228.115 3425.14 231.923 3413.66 239.487C3402.19 247.05 3396.4 258.16 3396.4 272.766C3396.4 280.59 3398.28 287.214 3402.08 292.535C3405.84 297.908 3411.11 302.394 3417.73 306.045C3424.41 309.696 3432.34 312.774 3441.62 315.277C3450.91 317.781 3461.03 320.181 3471.98 322.528C3486.06 325.397 3499.63 328.683 3512.51 332.334C3525.45 335.986 3536.92 341.15 3546.99 347.826C3557.06 354.503 3564.98 363.058 3570.88 373.49C3576.77 383.922 3579.69 397.276 3579.69 413.446C3579.69 427.269 3577.03 439.579 3571.66 450.272C3566.29 460.965 3558.78 469.989 3549.13 477.292C3539.48 484.594 3527.95 490.176 3514.65 493.931C3501.35 497.739 3486.85 499.617 3471.15 499.617L3471.09 499.513Z" fill="white"/>
<path d="M3613.18 196.662H3654.7V499.513H3613.18V196.662Z" fill="white"/>
<path d="M3915.78 452.202H3914.58C3904.15 468.112 3891.32 479.952 3876.09 487.776C3860.85 495.601 3843.69 499.513 3824.71 499.513C3804.36 499.513 3785.9 495.809 3769.21 488.35C3752.51 480.943 3738.22 470.563 3726.22 457.262C3713.97 443.961 3704.58 428.156 3698.11 409.795C3691.59 391.434 3688.36 371.195 3688.36 349.026C3688.36 326.858 3691.49 306.515 3697.74 287.893C3704 269.271 3713.24 253.049 3725.49 239.226C3737.23 225.925 3751.63 215.545 3768.68 207.981C3785.74 200.418 3805.62 196.662 3828.31 196.662C3845.52 196.662 3860.8 198.853 3874.21 203.287C3887.61 207.72 3899.3 213.928 3909.21 221.856C3919.12 229.785 3927.2 239.33 3933.41 250.389C3939.67 261.447 3944.21 273.653 3947.08 286.902H3905.66C3901.23 270.471 3892.78 257.065 3880.26 246.633C3867.74 236.201 3850.32 230.985 3827.89 230.985C3810.94 230.985 3796.23 233.958 3783.71 239.956C3771.19 245.955 3760.91 254.196 3752.83 264.785C3744.74 275.322 3738.74 287.841 3734.83 302.29C3730.92 316.738 3728.99 332.335 3728.99 348.974C3728.99 365.614 3731.39 381.888 3736.24 396.076C3741.04 410.264 3747.77 422.47 3756.37 432.589C3764.98 442.761 3775.26 450.637 3787.25 456.219C3799.25 461.852 3812.4 464.617 3826.74 464.617C3841.09 464.617 3853.66 462.322 3864.45 457.783C3875.25 453.245 3884.17 447.038 3891.21 439.214C3898.25 431.39 3903.52 422.366 3907.02 412.038C3910.51 401.762 3912.29 390.86 3912.29 379.384V373.125H3827.89V339.116H3951.77V493.097H3926.37L3915.83 452.046L3915.78 452.202Z" fill="white"/>
<path d="M3985.31 196.662H4028.87L4153.01 386.374C4156.82 392.06 4160.68 398.371 4164.59 405.309C4168.51 412.246 4172.1 418.819 4175.39 425.026C4179.2 432.068 4183.01 439.266 4186.81 446.621H4188.01C4187.44 439.005 4186.92 431.442 4186.4 423.826C4185.82 417.306 4185.51 410.264 4185.35 402.649C4185.2 395.033 4185.15 388.148 4185.15 381.888V196.662H4224.21V499.513H4181.08L4057.35 309.801C4053.54 304.115 4049.68 297.856 4045.77 291.075C4041.86 284.294 4038.1 277.774 4034.55 271.514C4030.49 264.472 4026.52 257.274 4022.77 249.919H4021.93C4022.19 257.535 4022.61 265.098 4023.13 272.714C4023.39 279.234 4023.65 286.172 4023.97 293.474C4024.23 300.777 4024.38 307.61 4024.38 313.817V499.461H3985.31V196.662Z" fill="white"/>
</svg>
