<svg width="199" height="34" viewBox="0 0 199 34" fill="none" xmlns="http://www.w3.org/2000/svg">
<path d="M46.6172 10.6313H57.1373V13.4261H49.8934V16.5469H55.9423V19.2256H49.8934V24.9684H46.6172V10.6313Z" fill="white"/>
<path d="M64.4435 24.9659C63.3942 24.9659 62.4511 24.7881 61.6142 24.4301C60.7747 24.0721 60.0612 23.5734 59.4687 22.9315C58.8761 22.2896 58.4243 21.5316 58.1083 20.6576C57.7947 19.7811 57.6367 18.8331 57.6367 17.8085C57.6367 16.7839 57.7947 15.8185 58.1083 14.9421C58.4218 14.0656 58.8761 13.3126 59.4687 12.6756C60.0612 12.0411 60.7747 11.5424 61.6142 11.1769C62.4536 10.814 63.3967 10.6313 64.4435 10.6313C65.4904 10.6313 66.4162 10.814 67.2556 11.1769C68.0951 11.5399 68.8086 12.0411 69.4011 12.6756C69.9937 13.3101 70.4455 14.0656 70.7615 14.9421C71.0751 15.8185 71.2331 16.774 71.2331 17.8085C71.2331 18.843 71.0751 19.7811 70.7615 20.6576C70.448 21.5341 69.9937 22.292 69.4011 22.9315C68.8086 23.5734 68.0951 24.0721 67.2556 24.4301C66.4162 24.7881 65.4805 24.9659 64.4435 24.9659ZM64.4633 22.376C65.0558 22.376 65.5743 22.2599 66.0162 22.0254C66.4606 21.7908 66.831 21.4699 67.1273 21.0625C67.4235 20.6551 67.6457 20.1737 67.7939 19.6207C67.942 19.0676 68.0161 18.4627 68.0161 17.8085C68.0161 17.1542 67.942 16.5469 67.7939 15.9864C67.6457 15.426 67.4235 14.9346 67.1273 14.5149C66.831 14.0952 66.4606 13.7693 66.0162 13.5348C65.5718 13.3002 65.0534 13.1842 64.4633 13.1842C63.8732 13.1842 63.3498 13.3002 62.9005 13.5348C62.4511 13.7693 62.0734 14.0952 61.7722 14.5149C61.471 14.9346 61.2413 15.4235 61.0883 15.9864C60.9352 16.5469 60.8562 17.1542 60.8562 17.8085C60.8562 18.4627 60.9327 19.0652 61.0883 19.6207C61.2413 20.1762 61.471 20.6576 61.7722 21.0625C62.0734 21.4699 62.4511 21.7908 62.9005 22.0254C63.3498 22.2599 63.8707 22.376 64.4633 22.376Z" fill="white"/>
<path d="M72.8242 10.6313H79.6458C80.3396 10.6313 80.984 10.7202 81.5815 10.9004C82.179 11.0807 82.695 11.3473 83.132 11.7004C83.569 12.0534 83.9121 12.483 84.164 12.9916C84.4133 13.5002 84.5393 14.0804 84.5393 14.7347C84.5393 15.5815 84.3269 16.3024 83.9047 16.8925C83.4801 17.4826 82.8061 17.927 81.8827 18.2208V18.2776C82.6011 18.4973 83.132 18.8207 83.4727 19.2503C83.8134 19.6799 84.0356 20.2799 84.1368 21.0526C84.201 21.5415 84.2479 22.0007 84.2825 22.4303C84.3146 22.8599 84.3467 23.245 84.3788 23.5858C84.4109 23.9265 84.4528 24.203 84.5047 24.4153C84.5565 24.6276 84.6405 24.7585 84.754 24.8103V24.9634H81.5173C81.4136 24.9116 81.3395 24.7832 81.2951 24.5783C81.2507 24.3733 81.2111 24.119 81.1791 23.8178C81.147 23.5166 81.1173 23.1784 81.0926 22.8056C81.0655 22.4328 81.0358 22.0476 80.9963 21.6501C80.9075 20.9317 80.6729 20.391 80.2927 20.0305C79.9125 19.67 79.3274 19.4923 78.5299 19.4923H76.1029V24.9634H72.8267V10.6313H72.8242ZM76.1005 17.0678H79.0089C79.7421 17.0678 80.3001 16.8974 80.6853 16.5567C81.0704 16.216 81.263 15.7568 81.263 15.1791C81.263 14.6013 81.0852 14.1174 80.7322 13.7619C80.3791 13.4089 79.836 13.2311 79.1052 13.2311H76.1005V17.0653V17.0678Z" fill="white"/>
<path d="M85.6602 10.6313H97.4912V13.4261H93.2151V24.9683H89.9215V13.4237H85.6626V10.6288L85.6602 10.6313Z" fill="white"/>
<path d="M99.082 10.6313H109.834V13.3669H102.358V16.2185H108.832V18.8183H102.358V22.1513H109.97V24.9634H99.0845V10.6313H99.082Z" fill="white"/>
<path d="M116.068 17.4702L111.656 10.6313H115.414L116.569 12.5768C116.737 12.8583 116.903 13.1644 117.071 13.4928C117.239 13.8212 117.392 14.1322 117.532 14.4285C117.685 14.7618 117.846 15.1099 118.014 15.4679H118.053C118.206 15.1075 118.367 14.7618 118.535 14.4285C118.675 14.1322 118.833 13.8212 119.006 13.4928C119.179 13.1644 119.35 12.8608 119.517 12.5768L120.693 10.6313H124.277L119.942 17.453L124.719 24.9684H120.828L119.384 22.4451C119.216 22.1637 119.053 21.8501 118.893 21.5094C118.732 21.1687 118.582 20.8502 118.441 20.5564C118.288 20.2107 118.132 19.8626 117.979 19.517H117.94C117.787 19.8626 117.624 20.2107 117.458 20.5564C117.318 20.8527 117.16 21.1687 116.987 21.5094C116.814 21.8501 116.644 22.1612 116.476 22.4451L114.992 24.9684H111.254L116.071 17.4727L116.068 17.4702Z" fill="white"/>
<path d="M133.336 10.6313H138.634C139.701 10.6313 140.634 10.8041 141.436 11.1523C142.239 11.5004 142.908 11.9892 143.441 12.6262C143.975 13.2632 144.372 14.0236 144.636 14.91C144.9 15.7963 145.031 16.7789 145.031 17.8579C145.031 18.9368 144.893 19.8947 144.616 20.7662C144.34 21.6402 143.925 22.3883 143.375 23.0105C142.822 23.6327 142.143 24.1166 141.333 24.4548C140.523 24.7955 139.58 24.9659 138.501 24.9659H133.338V10.6313H133.336ZM138.422 23.2524C139.232 23.2524 139.925 23.1265 140.503 22.8772C141.081 22.6278 141.553 22.2673 141.92 21.7983C142.286 21.3292 142.557 20.7613 142.73 20.0922C142.903 19.4256 142.989 18.68 142.989 17.8579C142.989 17.0357 142.908 16.2852 142.747 15.6037C142.587 14.9223 142.33 14.3421 141.977 13.8607C141.624 13.3792 141.165 13.0064 140.6 12.7422C140.034 12.4781 139.348 12.3472 138.538 12.3472H135.321V23.2524H138.422Z" fill="white"/>
<path d="M146.625 10.6313H156.817V12.3645H148.59V16.6999H156.027V18.3368H148.59V23.1734H157.029V24.9659H146.625V10.6313Z" fill="white"/>
<path d="M163.354 24.9659C162.389 24.9659 161.547 24.8424 160.824 24.5955C160.1 24.3486 159.496 24.0104 159.007 23.5857C158.518 23.1586 158.145 22.6549 157.886 22.0747C157.627 21.4946 157.478 20.8749 157.441 20.2206H159.315C159.426 21.2723 159.821 22.0723 160.503 22.6228C161.182 23.1734 162.152 23.4475 163.414 23.4475C163.87 23.4475 164.295 23.3956 164.685 23.2895C165.075 23.1858 165.409 23.0302 165.688 22.8253C165.967 22.6204 166.186 22.3661 166.347 22.055C166.507 21.7464 166.589 21.381 166.589 20.9613C166.589 20.5169 166.492 20.1465 166.302 19.8478C166.11 19.5515 165.838 19.3046 165.485 19.1071C165.132 18.9096 164.712 18.7417 164.224 18.6059C163.735 18.4701 163.189 18.3343 162.582 18.1985C161.962 18.0751 161.379 17.927 160.829 17.7541C160.278 17.5813 159.794 17.3492 159.372 17.0579C158.952 16.7666 158.622 16.4061 158.38 15.974C158.138 15.542 158.019 14.9914 158.019 14.3248C158.019 13.7446 158.135 13.2237 158.372 12.7669C158.607 12.3102 158.935 11.9225 159.355 11.609C159.775 11.293 160.278 11.0535 160.866 10.8856C161.453 10.7177 162.098 10.6362 162.804 10.6362C163.656 10.6362 164.391 10.7375 165.011 10.9424C165.628 11.1473 166.152 11.4288 166.579 11.7867C167.006 12.1447 167.337 12.5719 167.571 13.0657C167.806 13.5594 167.966 14.1051 168.053 14.6976H166.216C166.093 13.8582 165.739 13.2163 165.159 12.7793C164.579 12.3398 163.799 12.1201 162.824 12.1201C161.908 12.1201 161.179 12.3003 160.636 12.6583C160.093 13.0163 159.819 13.5422 159.819 14.2335C159.819 14.6038 159.908 14.9173 160.088 15.1692C160.266 15.4235 160.515 15.6358 160.829 15.8086C161.145 15.9814 161.52 16.1271 161.96 16.2456C162.399 16.3641 162.878 16.4777 163.396 16.5888C164.063 16.7246 164.705 16.8801 165.315 17.053C165.927 17.2258 166.47 17.4702 166.947 17.7862C167.423 18.1023 167.799 18.5072 168.078 19.0009C168.357 19.4947 168.495 20.1268 168.495 20.8921C168.495 21.5464 168.369 22.1291 168.115 22.6352C167.86 23.1413 167.505 23.5684 167.048 23.9141C166.591 24.2597 166.046 24.5239 165.416 24.7017C164.786 24.8819 164.1 24.9708 163.357 24.9708L163.354 24.9659Z" fill="white"/>
<path d="M170.078 10.6313H172.043V24.9659H170.078V10.6313Z" fill="white"/>
<path d="M184.401 22.7266H184.344C183.851 23.4796 183.243 24.04 182.522 24.4104C181.801 24.7807 180.989 24.9659 180.09 24.9659C179.128 24.9659 178.254 24.7906 177.464 24.4375C176.673 24.0869 175.997 23.5956 175.429 22.9661C174.849 22.3365 174.405 21.5884 174.098 20.7193C173.79 19.8503 173.637 18.8923 173.637 17.843C173.637 16.7937 173.785 15.8309 174.081 14.9495C174.377 14.0681 174.814 13.3002 175.395 12.646C175.95 12.0164 176.632 11.5251 177.439 11.1671C178.246 10.8091 179.187 10.6313 180.261 10.6313C181.076 10.6313 181.799 10.735 182.433 10.9449C183.068 11.1547 183.621 11.4485 184.09 11.8238C184.559 12.1991 184.942 12.6509 185.236 13.1743C185.532 13.6977 185.747 14.2754 185.883 14.9026H183.922C183.712 14.1248 183.312 13.4903 182.72 12.9965C182.127 12.5028 181.303 12.2559 180.241 12.2559C179.439 12.2559 178.742 12.3966 178.15 12.6805C177.557 12.9644 177.071 13.3545 176.688 13.8557C176.306 14.3545 176.022 14.947 175.837 15.6309C175.651 16.3148 175.56 17.053 175.56 17.8406C175.56 18.6282 175.674 19.3985 175.903 20.07C176.13 20.7416 176.449 21.3193 176.856 21.7983C177.264 22.2797 177.75 22.6525 178.318 22.9167C178.886 23.1833 179.508 23.3142 180.187 23.3142C180.866 23.3142 181.461 23.2055 181.972 22.9907C182.483 22.7759 182.905 22.4821 183.238 22.1118C183.572 21.7415 183.821 21.3143 183.986 20.8255C184.152 20.3391 184.236 19.8231 184.236 19.28V18.9837H180.241V17.3739H186.105V24.6622H184.902L184.404 22.7192L184.401 22.7266Z" fill="white"/>
<path d="M187.691 10.6313H189.753L195.629 19.6108C195.809 19.8799 195.992 20.1786 196.177 20.507C196.362 20.8354 196.533 21.1465 196.688 21.4403C196.868 21.7736 197.049 22.1143 197.229 22.4624H197.286C197.258 22.1019 197.234 21.7439 197.209 21.3835C197.182 21.0749 197.167 20.7416 197.16 20.3811C197.152 20.0206 197.15 19.6947 197.15 19.3985V10.6313H198.999V24.9659H196.957L191.101 15.9864C190.921 15.7173 190.738 15.421 190.553 15.1001C190.368 14.7791 190.19 14.4705 190.022 14.1742C189.829 13.8409 189.642 13.5002 189.464 13.1521H189.425C189.437 13.5126 189.457 13.8705 189.481 14.231C189.494 14.5396 189.506 14.868 189.521 15.2136C189.533 15.5593 189.541 15.8827 189.541 16.1765V24.9634H187.691V10.6313Z" fill="white"/>
<rect x="1" y="1" width="32" height="32" stroke="white" stroke-width="0.8"/>
<rect x="12" y="12" width="10" height="10" stroke="white" stroke-width="0.8"/>
<line x1="16.5" y1="12" x2="16.5" y2="1" stroke="white"/>
<line x1="12.1523" y1="17.4997" x2="1.24325" y2="17.4997" stroke="white"/>
<line x1="17.5" y1="21.8479" x2="17.5" y2="32.757" stroke="white"/>
<line x1="22" y1="16.5" x2="33" y2="16.5" stroke="white"/>
</svg>
